<?xml version="1.0" encoding="UTF-8" standalone="no"?>
<!-- Created with Inkscape (http://www.inkscape.org/) -->

<svg
   version="1.1"
   id="svg2"
   width="1169.616"
   height="678.66669"
   viewBox="0 0 1169.616 678.66669"
   sodipodi:docname="BrandBook_USC.ai"
   xmlns:inkscape="http://www.inkscape.org/namespaces/inkscape"
   xmlns:sodipodi="http://sodipodi.sourceforge.net/DTD/sodipodi-0.dtd"
   xmlns="http://www.w3.org/2000/svg"
   xmlns:svg="http://www.w3.org/2000/svg">
  <defs
     id="defs6">
    <clipPath
       clipPathUnits="userSpaceOnUse"
       id="clipPath18">
      <path
         d="M 0,509 H 877.212 V 0 H 0 Z"
         id="path16" />
    </clipPath>
  </defs>
  <sodipodi:namedview
     id="namedview4"
     pagecolor="#ffffff"
     bordercolor="#000000"
     borderopacity="0.25"
     inkscape:showpageshadow="2"
     inkscape:pageopacity="0.0"
     inkscape:pagecheckerboard="0"
     inkscape:deskcolor="#d1d1d1" />
  <g
     id="g8"
     inkscape:groupmode="layer"
     inkscape:label="BrandBook_USC"
     transform="matrix(1.3333333,0,0,-1.3333333,0,678.66667)">
    <path
       d="M 0,0 H 876.961 V 509 H 0 Z"
       style="fill:#040404;fill-opacity:1;fill-rule:nonzero;stroke:none"
       id="path10" />
    <g
       id="g12">
      <g
         id="g14"
         clip-path="url(#clipPath18)">
        <path
           d="M 880.212,0 H 3 v 509 h 877.212 z"
           style="fill:none;stroke:#040404;stroke-width:0.9;stroke-linecap:butt;stroke-linejoin:miter;stroke-miterlimit:10;stroke-dasharray:none;stroke-opacity:1"
           id="path20" />
        <g
           id="g22"
           transform="translate(508.7314,232.2778)">
          <path
             d="M 0,0 3.752,14.621 H 5.25 C 4.574,11.924 3.901,9.072 3.901,6.151 c 0,-10.873 9.521,-12.9 14.916,-12.9 7.799,0 15.906,4.202 15.906,13.648 0,8.693 -6.903,10.874 -14.706,13.278 L 15.9,21.448 C 11.691,22.723 3.229,25.57 3.229,35.09 c 0,6.457 3.813,14.549 15.747,14.549 7.42,0 12.293,-3.146 15.523,-6.067 L 29.626,32.468 h -1.502 c 0.895,1.953 1.95,4.948 1.95,7.27 0,5.93 -6.753,7.582 -11.257,7.582 -6.52,0 -13.711,-3.379 -13.711,-10.577 0,-7.35 7.49,-9.972 12.218,-11.246 l 3.225,-0.9 c 5.847,-1.649 16.339,-4.5 16.339,-16.271 0,-10.121 -7.794,-17.1 -18.962,-17.1 C 8.55,-8.774 2.324,-3.821 0,0"
             style="fill:#ffffff;fill-opacity:1;fill-rule:nonzero;stroke:none"
             id="path24" />
        </g>
        <g
           id="g26"
           transform="translate(554.9253,234.4517)">
          <path
             d="m 0,0 v 25.498 h -5.698 v 0.751 l 5.773,1.124 1.797,12.745 H 2.997 V 27.373 h 9.898 V 25.498 H 2.997 V 0.378 c 0,-6.826 1.567,-9.375 5.101,-9.375 1.797,0 4.494,0.676 6.445,6.071 h 1.124 C 14.094,-8.475 10.786,-10.948 6.744,-10.948 2.325,-10.948 0,-7.945 0,0"
             style="fill:#ffffff;fill-opacity:1;fill-rule:nonzero;stroke:none"
             id="path28" />
        </g>
        <g
           id="g30"
           transform="translate(576.9727,235.9546)">
          <path
             d="m 0,0 v 22.87 h -4.887 v 0.751 L 2.235,25.87 H 2.991 V 0.974 c 0,-8.099 2.777,-11.101 7.122,-11.101 5.484,0 9.003,4.725 10.804,9.376 V 22.87 h -4.876 v 0.751 l 7.126,2.249 h 0.746 V -8.627 h 4.873 v -0.748 l -7.127,-2.25 h -0.742 v 7.874 c -1.573,-3.449 -5.25,-8.7 -12.222,-8.7 C 3.743,-12.451 0,-9.824 0,0"
             style="fill:#ffffff;fill-opacity:1;fill-rule:nonzero;stroke:none"
             id="path32" />
        </g>
        <g
           id="g34"
           transform="translate(634.624,254.6221)">
          <path
             d="m 0,0 c -2.025,2.774 -5.465,6 -9.819,6 -6.525,0 -11.85,-6.221 -11.85,-15.142 0,-9.677 6.301,-19.202 21.669,-20.025 z m -24.74,-9.971 c 0,8.321 4.948,18.299 14.398,18.299 5.096,0 8.246,-3 10.342,-5.928 v 24.297 h -4.872 v 0.752 l 7.131,2.248 H 3.001 V -30.292 H 0 c -19.494,0 -24.74,11.695 -24.74,20.321"
             style="fill:#ffffff;fill-opacity:1;fill-rule:nonzero;stroke:none"
             id="path36" />
        </g>
        <g
           id="g38"
           transform="translate(647.5283,275.5464)">
          <path
             d="M 0,0 C 0,1.801 1.269,3.145 3.071,3.145 4.872,3.145 6.147,1.801 6.147,0 6.147,-1.803 4.872,-3.156 3.071,-3.156 1.269,-3.156 0,-1.803 0,0 m -2.772,-50.471 4.873,1.202 v 32.547 h -4.873 v 0.749 l 7.122,2.251 h 0.742 v -35.547 l 4.877,-1.202 v -0.745 H -2.772 Z"
             style="fill:#ffffff;fill-opacity:1;fill-rule:nonzero;stroke:none"
             id="path40" />
        </g>
        <g
           id="g42"
           transform="translate(692.2896,242.5557)">
          <path
             d="m 0,0 c 0,9.147 -5.021,18.066 -14.094,18.066 -8.172,0 -13.87,-7.274 -13.87,-16.272 0,-9.369 6.071,-18.522 15.289,-18.522 C -5.395,-16.728 0,-9.451 0,0 m -30.667,0.52 c 0,8.546 5.545,19.874 17.324,19.874 11.84,0 16.419,-11.247 16.419,-19.352 0,-8.467 -5.022,-20.094 -16.718,-20.094 -11.331,0 -17.025,10.876 -17.025,19.572"
             style="fill:#ffffff;fill-opacity:1;fill-rule:nonzero;stroke:none"
             id="path44" />
        </g>
        <g
           id="g46"
           transform="translate(228.02,262.4121)">
          <path
             d="m 0,0 h -30.168 c 0,7.787 5.61,9.031 14.263,9.031 8.653,0 15.802,-1.58 15.802,-1.58 v 10.033 c 0,0 -7.159,1.289 -16.339,1.289 -9.18,0 -24.562,-1.462 -24.562,-18.773 h -12.181 v -9.281 h 12.181 v -29.01 h 10.836 v 29.01 l 30.168,0 z"
             style="fill:#ffffff;fill-opacity:1;fill-rule:nonzero;stroke:none"
             id="path48" />
        </g>
        <g
           id="g50"
           transform="translate(413.6597,232.3809)">
          <path
             d="m 0,0 c -11.299,0 -14.416,6.29 -14.416,10.838 0,4.545 3.117,10.836 14.416,10.836 11.304,0 13.837,-7.542 13.837,-7.542 h 11.79 c 0,2.834 -2.432,17.083 -25.963,17.083 -13.539,0 -25.276,-6.013 -25.276,-20.377 0,-14.367 11.737,-20.383 25.276,-20.383 23.531,0 25.963,14.255 25.963,17.087 H 13.837 C 13.837,7.542 11.304,0 0,0"
             style="fill:#ffffff;fill-opacity:1;fill-rule:nonzero;stroke:none"
             id="path52" />
        </g>
        <g
           id="g54"
           transform="translate(361.2305,263.3589)">
          <path
             d="m 0,0 c -11.36,0 -15.125,-5.3 -15.125,-5.3 v 4.363 H -25.962 V -39.23 h 10.837 v 19.155 c 0,2.113 1.059,10.405 12.731,10.405 11.672,0 12.741,-8.301 12.741,-10.41 v -19.132 l 10.827,-0.008 v 19.14 C 21.174,-12.022 16.4,0 0,0"
             style="fill:#ffffff;fill-opacity:1;fill-rule:nonzero;stroke:none"
             id="path56" />
        </g>
        <g
           id="g58"
           transform="translate(303.4858,232.6465)">
          <path
             d="m 0,0 c -10.907,0 -14.113,6.167 -14.113,10.443 0,4.278 3.248,10.446 13.837,10.446 10.902,0 14.118,-6.168 14.118,-10.446 C 13.842,6.167 10.594,0 0,0 m 14.725,29.794 v -4.168 c 0,0 -6.175,4.843 -16.246,4.843 -17.674,0 -23.723,-10.527 -23.723,-19.711 0,-9.199 6.049,-19.718 23.723,-19.718 10.071,0 16.246,4.843 16.246,4.843 V -8.5 h 10.832 v 38.294 z"
             style="fill:#ffffff;fill-opacity:1;fill-rule:nonzero;stroke:none"
             id="path60" />
        </g>
        <g
           id="g62"
           transform="translate(259.5786,263.3931)">
          <path
             d="m 0,0 c -10.617,0 -14.636,-4.624 -15.121,-5.233 v 4.295 H -25.948 V -39.23 h 10.827 v 19.525 c 0.186,5.215 4.167,10.038 12.722,10.038 8.42,0 16.708,-1.571 16.708,-1.571 V -1.233 C 14.309,-1.233 6.45,0 0,0"
             style="fill:#ffffff;fill-opacity:1;fill-rule:nonzero;stroke:none"
             id="path64" />
        </g>
        <g
           id="g66"
           transform="translate(470.0977,232.6465)">
          <path
             d="m 0,0 c -10.902,0 -14.113,6.167 -14.113,10.443 0,4.278 3.249,10.446 13.842,10.446 10.898,0 14.109,-6.168 14.109,-10.446 C 13.838,6.167 10.594,0 0,0 m 14.725,29.794 v -4.168 c 0,0 -6.175,4.843 -16.242,4.843 -17.673,0 -23.722,-10.527 -23.722,-19.711 0,-9.199 6.049,-19.718 23.722,-19.718 10.067,0 16.242,4.843 16.242,4.843 V -8.5 h 10.832 v 38.294 z"
             style="fill:#ffffff;fill-opacity:1;fill-rule:nonzero;stroke:none"
             id="path68" />
        </g>
        <g
           id="g70"
           transform="translate(712.5957,271.7549)">
          <path
             d="m 0,0 c 0,-4.618 -3.752,-8.37 -8.368,-8.37 -4.62,0 -8.387,3.752 -8.387,8.37 0,4.619 3.767,8.374 8.387,8.374 C -3.752,8.374 0,4.619 0,0 m -8.368,9.34 c -5.152,0 -9.339,-4.19 -9.339,-9.34 0,-5.153 4.187,-9.336 9.339,-9.336 5.148,0 9.334,4.183 9.334,9.336 0,5.15 -4.186,9.34 -9.334,9.34"
             style="fill:#ffffff;fill-opacity:1;fill-rule:nonzero;stroke:none"
             id="path72" />
        </g>
        <g
           id="g74"
           transform="translate(706.7529,275.8765)">
          <path
             d="m 0,0 c -1.064,0.303 -2.231,0.399 -3.594,0.276 -0.802,-0.061 -1.502,-0.243 -2.137,-0.55 -1.517,-0.732 -2.301,-1.923 -2.39,-3.645 -0.06,-0.977 0.182,-1.886 0.682,-2.632 0.503,-0.751 1.246,-1.303 2.165,-1.591 0.873,-0.286 1.774,-0.431 2.67,-0.431 0.938,0 1.904,0.156 2.847,0.463 1.516,0.5 2.468,1.563 2.804,3.168 l 0.019,0.084 H 2.982 2.007 0.583 L 0.532,-4.978 C 0.275,-5.633 -0.177,-6.08 -0.803,-6.272 -1.816,-6.58 -2.856,-6.616 -3.874,-6.37 c -0.812,0.196 -1.372,0.63 -1.671,1.283 -0.289,0.618 -0.298,1.274 -0.056,1.861 0.257,0.609 0.775,1.076 1.447,1.312 0.719,0.255 1.484,0.31 2.474,0.165 1.045,-0.15 1.787,-0.663 2.221,-1.526 l 0.033,-0.063 0.667,-0.003 0.406,0.003 0.836,-0.003 c 0.201,0 0.359,0.003 0.513,0.003 H 3.075 L 3.062,-3.257 C 2.931,-2.529 2.665,-1.928 2.273,-1.417 1.746,-0.751 1.008,-0.283 0,0"
             style="fill:#ffffff;fill-opacity:1;fill-rule:nonzero;stroke:none"
             id="path76" />
        </g>
        <g
           id="g78"
           transform="translate(34.4946,482.3833)">
          <path
             d="m 0,0 -7.917,0.633 5.15,6.045 -0.27,0.269 -6.116,-5.044 -0.631,7.88 h -0.382 l -0.743,-7.904 -6.032,5.136 -0.27,-0.269 5.064,-6.114 L -20.045,0 v -0.383 l 7.88,-0.75 -5.046,-6.092 0.27,-0.271 6.022,5.131 0.753,-7.897 h 0.382 l 0.632,7.902 6.115,-5.069 0.27,0.269 -5.125,6.02 L 0,-0.383 Z"
             style="fill:#ffffff;fill-opacity:1;fill-rule:nonzero;stroke:none"
             id="path80" />
        </g>
        <g
           id="g82"
           transform="translate(3.0005,456.2866)">
          <path
             d="M 0,0 H 42.817"
             style="fill:none;stroke:#040404;stroke-width:0.5;stroke-linecap:butt;stroke-linejoin:miter;stroke-miterlimit:10;stroke-dasharray:none;stroke-opacity:1"
             id="path84" />
        </g>
      </g>
    </g>
  </g>
</svg>
